<svg width="640" height="480" xmlns="http://www.w3.org/2000/svg" xmlns:svg="http://www.w3.org/2000/svg">
 <!-- Created with SVG-edit - http://svg-edit.googlecode.com/ -->
 <g>
  <title>Layer 1</title>
  <path d="m182,93c0,3.268 0,3.712 0,4.75c0,0.606 0,1.278 0,2.022c0,1.728 0,2.72283 0,3.80666c0,1.17184 0,2.43066 0,3.7755c0,1.42983 0,2.94367 0,4.5405c0,3.43867 -0.00079,5.27683 0.00133,7.184c0.00218,1.96516 0.00693,3.97735 0.0195,6.0255c0.01273,2.07318 0.02991,4.16042 0.0645,6.2505c0.0686,4.14557 0.13086,6.18086 0.20134,8.188c0.06958,1.98154 0.15448,3.93895 0.255,5.87401c0.09952,1.91562 0.21179,3.81323 0.345,5.694c0.26375,3.72385 0.43066,5.56703 0.59732,7.39467c0.16472,1.80637 0.33931,3.5842 0.51601,5.32799c0.17268,1.70421 0.34763,3.36197 0.51601,4.968c0.31787,3.03194 0.46451,4.44778 0.59732,5.8c0.12708,1.29381 0.24333,2.53571 0.345,3.73199c0.09822,1.15573 0.18663,2.27757 0.255,3.37201c0.13289,2.12723 0.16809,3.17241 0.20267,4.20399c0.03404,1.01541 0.05833,2.01201 0.084,2.9865c0.02501,0.94952 0.04639,1.87125 0.084,2.76151c0.07083,1.67654 0.13252,2.45659 0.2,3.19733c0.0641,0.7036 0.13918,1.3696 0.216,1.99951c0.07262,0.59543 0.14941,1.15607 0.216,1.68449c0.12109,0.96086 0.16544,1.39626 0.19867,1.80267c0.0309,0.37794 0.05141,0.72923 0.0645,1.05449c0.01208,0.30009 0.01753,0.57632 0.0195,0.8295c0.00343,0.44133 0.00032,0.63168 0.00266,0.804c0.00211,0.15636 0.00624,0.29895 0.0195,0.429c0.0123,0.12067 0.02986,0.23459 0.0645,0.339c0.06876,0.20728 0.13347,0.30415 0.19867,0.40134c0.06613,0.09857 0.14008,0.19173 0.216,0.2805c0.07346,0.08588 0.14674,0.16425 0.216,0.23549c0.11632,0.11964 0.16199,0.16454 0.2,0.20001c0.03079,0.02875 0.05756,0.05138 0.084,0.0645c0.02444,0.01213 0.05257,0.01765 0.084,0.0195c0.08253,0.00484 0.1375,0.00133 0.20134,0.00133c0.07182,0 0.15067,0 0.23549,0c0.08984,0 0.18367,0 0.2805,0c0.19867,0 0.29851,0 0.39734,0c0.09683,0 0.19066,0 0.2805,0c0.08482,0 0.16367,0 0.23549,0c0.11867,0 0.164,0 0.20134,0c0.69467,0 1.584,0 2.48399,0c0.90451,0 1.76668,0 2.62083,0c0.97917,0 1.78819,0.05582 2.57918,-0.08533c1.0233,-0.1826 1.6196,-0.56248 2.82133,-0.79333c0.52612,-0.10107 1.36646,-0.06985 2.41199,-0.28801c0.95848,-0.19998 1.61525,-0.54799 2.5885,-0.93365c0.83211,-0.32973 1.46783,-0.556 2.15018,-0.87035c1.1846,-0.54573 1.60706,-0.79953 2.55333,-1.32266c0.52145,-0.28827 1.07545,-0.601 1.66949,-0.92999c0.63391,-0.35107 2.03737,-1.11215 2.81267,-1.51967c0.81798,-0.42995 1.67767,-0.87263 2.57249,-1.32901c0.92349,-0.47101 1.87303,-0.94994 2.84251,-1.437c0.98386,-0.49428 2.97769,-1.4906 3.97783,-1.99133c1.00253,-0.50194 2.00946,-1.00711 3.021,-1.521c1.02113,-0.51877 2.05203,-1.04808 3.093,-1.593c1.05772,-0.5537 3.22089,-1.71556 4.32866,-2.32883c1.12961,-0.62535 2.27328,-1.27229 3.429,-1.9395c1.17166,-0.67642 2.35139,-1.37123 3.537,-2.08351c1.19576,-0.71837 3.59311,-2.19716 4.79117,-2.95549c1.20329,-0.76164 2.40602,-1.53743 3.6105,-2.32501c1.21185,-0.7924 2.42654,-1.59816 3.6465,-2.41499c1.2294,-0.82315 3.71001,-2.50424 4.964,-3.3595c1.26202,-0.86073 2.52686,-1.72722 3.79349,-2.59351c1.26434,-0.86472 2.52319,-1.7252 3.77551,-2.5755c1.23965,-0.84171 3.67545,-2.47804 4.86667,-3.267c1.17017,-0.77502 2.32489,-1.5321 3.46048,-2.28149c1.12076,-0.73962 2.2276,-1.47263 3.3165,-2.2095c1.08044,-0.73117 3.20325,-2.21336 4.24417,-2.97301c1.03644,-0.75638 2.05423,-1.52322 3.05402,-2.29349c0.98752,-0.7608 1.95135,-1.52147 2.892,-2.27551c0.92065,-0.73802 2.67694,-2.17535 3.51099,-2.86633c0.80594,-0.66771 1.58029,-1.31532 2.32501,-1.9395c0.71527,-0.5995 1.39951,-1.17525 2.05499,-1.7235c0.62454,-0.52238 1.78397,-1.4818 2.3205,-1.91617c0.50754,-0.41089 0.9931,-0.79721 1.45651,-1.16699c0.44559,-0.35556 0.87732,-0.69972 1.29449,-1.041c0.41083,-0.33609 1.21567,-1.02058 1.61316,-1.3775c0.39987,-0.35907 0.79276,-0.72552 1.17902,-1.09351c0.38107,-0.36304 0.75003,-0.72327 1.10699,-1.0755c0.34436,-0.3398 0.98099,-0.9765 1.27133,-1.26683c0.27234,-0.27234 0.52866,-0.52867 0.771,-0.771c0.23035,-0.23033 0.45068,-0.45067 0.66299,-0.66301c0.20633,-0.20633 0.60901,-0.60899 0.80884,-0.80882c0.19885,-0.19884 0.39566,-0.39566 0.58951,-0.58951c0.18982,-0.18983 0.37466,-0.37466 0.5535,-0.5535c0.17184,-0.17183 0.49051,-0.49051 0.6355,-0.6355c0.13501,-0.13499 0.26001,-0.26001 0.375,-0.375c0.10501,-0.105 0.20001,-0.20001 0.285,-0.285c0.07501,-0.075 0.19534,-0.19467 0.24017,-0.24033c0.03644,-0.03708 0.06598,-0.06746 0.08548,-0.09601c0.01663,-0.02438 0.02701,-0.05032 0.03152,-0.078c0.00507,-0.03107 0.00449,-0.114 0.00449,-0.16882c0,-0.06384 0,-0.13567 0,-0.21451c0,-0.08482 0.00012,-0.17467 0,-0.26849c-0.00067,-0.4955 -0.08948,-1.36638 -0.64667,-1.89551c-0.74887,-0.71115 -1.6084,-1.02235 -2.35333,-1.73333c-0.42868,-0.40914 -1.00787,-1.19842 -1.45715,-1.7185c-0.69,-0.79876 -1.48566,-1.49966 -2.04285,-1.9065c-0.53812,-0.39293 -1.57697,-1.02336 -2.27466,-1.41633c-0.67636,-0.38095 -1.64413,-0.95139 -2.18701,-1.278c-0.88043,-0.52969 -1.5087,-0.90167 -2.55966,-1.32584c-0.7211,-0.29104 -1.47775,-0.50381 -2.22601,-0.717c-1.08472,-0.30906 -2.11145,-0.61184 -2.81516,-0.8045c-0.75952,-0.20794 -2.10361,-0.50298 -2.62317,-0.6c-0.55243,-0.10316 -1.73688,-0.30078 -2.35599,-0.4c-0.62888,-0.10078 -1.89371,-0.29578 -3.125,-0.5c-0.59067,-0.09797 -1.71933,-0.29844 -2.26135,-0.4c-1.05124,-0.19697 -1.56311,-0.29933 -3.07199,-0.6c-0.49988,-0.09961 -1.49503,-0.29809 -1.98932,-0.38934c-0.97375,-0.17976 -1.92334,-0.34209 -2.84402,-0.444c-0.8797,-0.09737 -1.73044,-0.13857 -2.556,-0.156c-0.8092,-0.01708 -2.01089,-0.00495 -2.81516,-0.01517c-0.81644,-0.01037 -1.65488,-0.02898 -2.96216,-0.16216c-0.45575,-0.04643 -1.39047,-0.18622 -2.35419,-0.33334c-0.48981,-0.07478 -1.47784,-0.24274 -2.979,-0.3785c-0.49808,-0.04504 -1.48938,-0.08893 -1.97931,-0.10066c-0.96353,-0.02308 -2.35419,-0.02084 -3.23952,-0.02084c-0.43765,0 -1.323,0 -2.24832,0c-1.533,0 -2.0975,-0.00145 -2.68901,0.00134c-1.25201,0.0059 -1.90657,0.01669 -2.57599,0.03467c-0.68158,0.0183 -1.37329,0.02967 -2.76801,0.13066c-1.40291,0.10159 -2.10539,0.19293 -2.81067,0.29067c-0.71111,0.09855 -1.42677,0.21786 -2.1465,0.3615c-0.72971,0.14562 -2.21147,0.50753 -2.965,0.72433c-0.7706,0.22172 -1.55428,0.47183 -2.35651,0.7395c-0.82683,0.27588 -1.67632,0.57376 -2.55449,0.8835c-0.90984,0.3209 -2.83302,1.00188 -3.85318,1.3555c-1.05716,0.36644 -2.15118,0.7404 -3.27899,1.125c-1.15953,0.39542 -2.3495,0.79949 -3.567,1.215c-1.24384,0.42449 -3.8013,1.30412 -5.1115,1.76c-1.33382,0.4641 -2.69283,0.94052 -4.0815,1.425c-1.42032,0.49552 -2.87538,1.0018 -4.36951,1.515c-1.53386,0.52685 -4.73773,1.60729 -6.41333,2.16016c-1.72305,0.56853 -3.49553,1.14476 -5.3145,1.7355c-1.8647,0.60559 -3.7751,1.224 -5.7285,1.8615c-1.99728,0.65181 -6.11613,2.0126 -8.23517,2.724c-2.15831,0.72458 -4.35091,1.46825 -6.57899,2.21851c-2.25925,0.76076 -4.54793,1.52829 -6.867,2.2905c-2.34225,0.76984 -7.09915,2.28751 -9.50883,3.02634c-2.41301,0.73985 -4.82304,1.45776 -7.2135,2.16449c-2.35722,0.69691 -4.67122,1.37283 -6.92551,2.03851c-2.18436,0.64503 -6.28838,1.87952 -8.18349,2.47583c-1.80081,0.56665 -3.51334,1.12468 -5.151,1.67099c-1.57829,0.5265 -3.10446,1.04933 -4.593,1.563c-1.46346,0.50502 -4.35859,1.51021 -5.81267,2.00867c-1.45525,0.49887 -2.90525,0.99158 -4.341,1.479c-1.41358,0.4799 -2.79759,0.94856 -4.143,1.407c-1.29992,0.44293 -3.72973,1.27895 -4.845,1.67134c-1.05269,0.37038 -2.04679,0.72647 -2.988,1.071c-0.89677,0.32825 -1.7528,0.64857 -2.574,0.963c-0.79478,0.30431 -2.32275,0.90715 -3.06651,1.20883c-0.73224,0.29701 -1.44798,0.59335 -2.1435,0.8895c-0.67546,0.2876 -1.32536,0.57166 -1.9455,0.8535c-0.59181,0.26897 -1.66833,0.78693 -2.14684,1.03534c-0.44405,0.23053 -0.84959,0.45403 -1.221,0.66449c-0.34119,0.19334 -0.65021,0.37547 -0.933,0.53851c-0.25592,0.14754 -0.6972,0.38939 -0.88934,0.476c-0.1708,0.077 -0.32803,0.13492 -0.471,0.18149c-0.12978,0.04227 -0.25107,0.07466 -0.363,0.10951c-0.10674,0.03323 -0.3108,0.11533 -0.40883,0.17316c-0.1008,0.05946 -0.19694,0.12973 -0.28951,0.20401c-0.0911,0.0731 -0.17532,0.14862 -0.25349,0.222c-0.07246,0.06801 -0.19051,0.18599 -0.23567,0.23116c-0.03617,0.03618 -0.06433,0.06435 -0.08549,0.08551c-0.01517,0.01517 -0.02534,0.02533 -0.0315,0.03149c-0.00317,0.00317 -0.0045,0.0045 -0.0045,0.0045c0,0 0,0 0,0c0,0 0,0 0,0c0,0 0,0 0.00017,0c0.00117,0 0.00433,0 0.0105,0c0.01017,0 0.02534,0 0.0465,0c0.02817,0 0.1095,0 0.16433,0c0.06384,0 0.13567,0 0.2145,0c0.08484,0 0.17467,0 0.2685,0c0.09683,0 0.2955,0 0.39533,0c0.09884,0 0.19567,0 0.28951,0c0.08983,0 0.17467,0 0.25349,0c0.07184,0 0.19051,0 0.23584,0c0.03733,0 0.06866,0 0.096,0c0.02533,0 0.05066,0 0.078,0c0.03133,0 0.114,0 0.16867,0c0.06266,0 0.13133,0 0.20399,0c0.07467,0 0.14934,0 0.222,0c0.06867,0 0.186,0 0.23134,0c0.34267,0 1.28799,0 2.12133,0c0.81433,0 1.77248,0.01268 2.5625,-0.02083c0.60422,-0.02562 1.9609,-0.19234 2.70367,-0.33633c0.79812,-0.15472 1.65218,-0.34964 2.10583,-0.44417c1.46996,-0.3063 2.00248,-0.40099 3.132,-0.60933c0.60007,-0.11069 1.2255,-0.22443 1.8765,-0.34651c0.67834,-0.12721 2.11998,-0.40717 2.88516,-0.56483c0.80018,-0.16489 1.63812,-0.3452 2.51701,-0.54599c0.92651,-0.21167 1.90239,-0.44646 2.931,-0.70801c1.08881,-0.27687 3.45412,-0.92004 4.73633,-1.28833c1.34454,-0.38618 2.73735,-0.80043 4.17001,-1.233c1.46403,-0.44205 2.94695,-0.89775 4.43999,-1.35899c1.49362,-0.46143 4.43959,-1.37834 5.87617,-1.82201c1.41275,-0.43631 2.80905,-0.86433 4.1985,-1.27499c1.38489,-0.40932 2.77542,-0.80701 4.1805,-1.185c1.42027,-0.38208 4.34976,-1.10278 5.87199,-1.44051c1.56175,-0.3465 3.17221,-0.67696 4.8315,-1.0065c1.7097,-0.33957 3.47594,-0.67632 5.2995,-1.02451c1.88445,-0.35982 5.84888,-1.12163 7.93034,-1.5325c2.13321,-0.42108 4.29739,-0.85535 6.47549,-1.28699c2.17155,-0.43034 4.31772,-0.85295 6.42149,-1.25101c2.03894,-0.38579 5.85303,-1.06232 7.59685,-1.33383c1.63498,-0.25458 3.1799,-0.46767 4.64699,-0.6525c1.40163,-0.17657 2.75453,-0.32796 4.071,-0.4725c1.2942,-0.14211 3.87328,-0.42513 5.18268,-0.582c1.32796,-0.15909 2.67111,-0.32869 4.02899,-0.4935c1.36946,-0.16621 2.74873,-0.32974 4.13701,-0.47549c1.39307,-0.14626 4.19048,-0.38506 5.59149,-0.46701c1.40303,-0.08206 2.81287,-0.13715 4.23151,-0.18149c1.43037,-0.04471 2.87599,-0.07574 4.33949,-0.10951c1.4845,-0.03424 4.52866,-0.11443 6.09201,-0.17332c1.58466,-0.05971 3.18115,-0.13252 4.78049,-0.21451c1.59367,-0.0817 3.17216,-0.17212 4.7265,-0.26849c1.52165,-0.09435 4.42963,-0.29391 5.80017,-0.39534c1.31477,-0.09731 2.5773,-0.19597 3.79201,-0.28949c1.17064,-0.09013 2.30116,-0.17708 3.396,-0.25351c1.0625,-0.07417 3.10782,-0.19461 4.09799,-0.23566c0.96985,-0.04021 1.91994,-0.06718 2.84999,-0.08551c0.90994,-0.01794 1.80002,-0.02679 2.67001,-0.03149c0.85001,-0.00459 2.48999,-0.0045 3.28033,-0.0045c0.77234,0 1.52866,0 2.271,0c0.73035,0 1.45068,0 2.16299,0c0.70633,0 2.10901,0 2.80917,0c0.70117,0 1.40433,0 2.1105,0c0.71017,0 1.42532,0 2.14648,0c0.72818,0 2.2095,0 2.96417,0c0.76266,0 1.53134,0 2.30402,0c0.77466,0 1.54932,0 2.32199,0c0.76868,0 2.28601,-0.0005 3.03101,0.00017c0.73499,0.00066 1.46002,0.00226 2.17499,0.0105c0.70505,0.00812 1.40012,0.02162 2.08502,0.04649c0.67514,0.02452 1.99545,0.10425 2.64066,0.16451c0.64017,0.05978 1.27795,0.13553 1.91699,0.22501c0.6463,0.09048 1.30191,0.19673 1.97101,0.315c0.68826,0.12164 2.13339,0.40309 2.89783,0.56c0.79422,0.16301 1.61609,0.33798 2.46451,0.52499c0.87527,0.19293 1.77515,0.39786 2.69849,0.61501c0.94736,0.22279 2.90604,0.70294 3.91516,0.95982c1.02823,0.26175 2.07169,0.53436 3.129,0.8145c1.07004,0.28351 2.14954,0.57404 3.23703,0.86852c1.09384,0.29619 3.29095,0.89558 4.39047,1.19533c1.0965,0.29892 2.18692,0.59601 3.26852,0.8895c1.0694,0.29018 2.12381,0.57532 3.16049,0.8535c1.01535,0.27246 2.97128,0.79131 3.90683,1.03568c0.90714,0.23695 1.78864,0.46449 2.646,0.6855c0.8353,0.21532 1.65082,0.42477 2.448,0.63148c0.78149,0.20264 2.30426,0.60359 3.04883,0.80434c0.7341,0.19792 1.45566,0.39575 2.16452,0.58951c0.69479,0.18991 1.37436,0.37582 2.03848,0.5535c0.64655,0.17296 1.88501,0.49249 2.47549,0.63567c0.56955,0.13809 1.11987,0.26503 1.65002,0.3855c0.50983,0.11584 1.00018,0.22458 1.47,0.3315c0.45013,0.10243 1.29062,0.30199 1.67999,0.40451c0.37064,0.0976 0.72092,0.19705 1.04999,0.29999c0.31088,0.09724 0.60132,0.19653 0.87,0.3c0.25128,0.09677 0.69193,0.29645 0.88034,0.39984c0.17416,0.09557 0.32965,0.1942 0.47101,0.28949c0.13126,0.08849 0.24997,0.17567 0.36301,0.25351c0.10568,0.07277 0.30737,0.19421 0.40881,0.23566c0.09744,0.03981 0.19513,0.06691 0.28952,0.08551c0.08936,0.01761 0.17456,0.02667 0.25348,0.03149c0.07178,0.00439 0.19052,0.0045 0.23569,0.0045c0.03616,0 0.06433,0 0.08548,0c0.01517,0 0.02533,0 0.03152,0c0.00314,0 0.00449,0 0.00449,0.00034c0,0.00233 0,0.00867 0,0.021c0,0.02034 0,0.05067 0,0.093l0,0.05634" id="svg_1" stroke-width="5" stroke="#000000" fill="none"/>
 </g>
</svg>